<?xml version="1.0" encoding="UTF-8" standalone="no"?>
<!-- Created with Inkscape (http://www.inkscape.org/) -->

<svg
   xmlns:dc="http://purl.org/dc/elements/1.1/"
   xmlns:cc="http://creativecommons.org/ns#"
   xmlns:rdf="http://www.w3.org/1999/02/22-rdf-syntax-ns#"
   xmlns:svg="http://www.w3.org/2000/svg"
   xmlns="http://www.w3.org/2000/svg"
   xmlns:sodipodi="http://sodipodi.sourceforge.net/DTD/sodipodi-0.dtd"
   xmlns:inkscape="http://www.inkscape.org/namespaces/inkscape"
   width="800mm"
   height="800mm"
   viewBox="0 0 2834.6457 2834.6457"
   id="svg2"
   version="1.1"
   inkscape:version="0.91 r13725"
   sodipodi:docname="draft2.svg">
  <defs
     id="defs4">
    <inkscape:path-effect
       effect="skeletal"
       id="path-effect4388"
       is_visible="true"
       pattern="m -1.0101525,-1772.2328 c 0,-2.76 2.24,-5 5,-5 2.76,0 5,2.24 5,5 0,2.76 -2.24,5 -5,5 -2.76,0 -5,-2.24 -5,-5 z"
       copytype="single_stretched"
       prop_scale="1"
       scale_y_rel="false"
       spacing="0"
       normal_offset="0"
       tang_offset="0"
       prop_units="false"
       vertical_pattern="false"
       fuse_tolerance="0" />
    <inkscape:path-effect
       fuse_tolerance="0"
       vertical_pattern="false"
       prop_units="false"
       tang_offset="0"
       normal_offset="0"
       spacing="0"
       scale_y_rel="false"
       prop_scale="1"
       copytype="single_stretched"
       pattern="m 1995.7203,-2233.3966 c 0,-2.76 2.24,-5 5,-5 2.76,0 5,2.24 5,5 0,2.76 -2.24,5 -5,5 -2.76,0 -5,-2.24 -5,-5 z"
       is_visible="true"
       id="path-effect4370"
       effect="skeletal" />
    <inkscape:path-effect
       effect="skeletal"
       id="path-effect4366"
       is_visible="true"
       pattern="m -261.60868,36.428571 c 0,-2.76 2.24,-5 5,-5 2.76,0 5,2.24 5,5 0,2.76 -2.24,5 -5,5 -2.76,0 -5,-2.24 -5,-5 z"
       copytype="single_stretched"
       prop_scale="1"
       scale_y_rel="false"
       spacing="0"
       normal_offset="0"
       tang_offset="0"
       prop_units="false"
       vertical_pattern="false"
       fuse_tolerance="0" />
    <inkscape:path-effect
       fuse_tolerance="0"
       vertical_pattern="false"
       prop_units="false"
       tang_offset="0"
       normal_offset="0"
       spacing="0"
       scale_y_rel="false"
       prop_scale="1"
       copytype="single_stretched"
       pattern="m 672.69191,36.428571 c 0,-2.76 2.24,-5 5,-5 2.76,0 5,2.24 5,5 0,2.76 -2.24,5 -5,5 -2.76,0 -5,-2.24 -5,-5 z"
       is_visible="true"
       id="path-effect4362"
       effect="skeletal" />
    <inkscape:path-effect
       effect="skeletal"
       id="path-effect4358"
       is_visible="true"
       pattern="m 672.69191,36.428571 c 0,-2.76 2.24,-5 5,-5 2.76,0 5,2.24 5,5 0,2.76 -2.24,5 -5,5 -2.76,0 -5,-2.24 -5,-5 z"
       copytype="single_stretched"
       prop_scale="1"
       scale_y_rel="false"
       spacing="0"
       normal_offset="0"
       tang_offset="0"
       prop_units="false"
       vertical_pattern="false"
       fuse_tolerance="0" />
    <inkscape:path-effect
       fuse_tolerance="0"
       vertical_pattern="false"
       prop_units="false"
       tang_offset="0"
       normal_offset="0"
       spacing="0"
       scale_y_rel="false"
       prop_scale="1"
       copytype="single_stretched"
       pattern="m 1995.7203,-2264.8252 c 0,-2.76 2.24,-5 5,-5 2.76,0 5,2.24 5,5 0,2.76 -2.24,5 -5,5 -2.76,0 -5,-2.24 -5,-5 z"
       is_visible="true"
       id="path-effect4348"
       effect="skeletal" />
    <inkscape:path-effect
       effect="skeletal"
       id="path-effect4344"
       is_visible="true"
       pattern="m -261.60868,5 c 0,-2.76 2.24,-5 5,-5 2.76,0 5,2.24 5,5 0,2.76 -2.24,5 -5,5 -2.76,0 -5,-2.24 -5,-5 z"
       copytype="single_stretched"
       prop_scale="1"
       scale_y_rel="false"
       spacing="0"
       normal_offset="0"
       tang_offset="0"
       prop_units="false"
       vertical_pattern="false"
       fuse_tolerance="0" />
    <inkscape:path-effect
       fuse_tolerance="0"
       vertical_pattern="false"
       prop_units="false"
       tang_offset="0"
       normal_offset="0"
       spacing="0"
       scale_y_rel="false"
       prop_scale="1"
       copytype="single_stretched"
       pattern="m 672.69191,5 c 0,-2.76 2.24,-5 5,-5 2.76,0 5,2.24 5,5 0,2.76 -2.24,5 -5,5 -2.76,0 -5,-2.24 -5,-5 z"
       is_visible="true"
       id="path-effect4340"
       effect="skeletal" />
    <inkscape:path-effect
       effect="skeletal"
       id="path-effect4336"
       is_visible="true"
       pattern="m 672.69191,5 c 0,-2.76 2.24,-5 5,-5 2.76,0 5,2.24 5,5 0,2.76 -2.24,5 -5,5 -2.76,0 -5,-2.24 -5,-5 z"
       copytype="single_stretched"
       prop_scale="1"
       scale_y_rel="false"
       spacing="0"
       normal_offset="0"
       tang_offset="0"
       prop_units="false"
       vertical_pattern="false"
       fuse_tolerance="0" />
    <inkscape:path-effect
       effect="skeletal"
       id="path-effect4322"
       is_visible="true"
       pattern="m 1995.7203,-2264.8252 c 0,-2.76 2.24,-5 5,-5 2.76,0 5,2.24 5,5 0,2.76 -2.24,5 -5,5 -2.76,0 -5,-2.24 -5,-5 z"
       copytype="single_stretched"
       prop_scale="1"
       scale_y_rel="false"
       spacing="0"
       normal_offset="0"
       tang_offset="0"
       prop_units="false"
       vertical_pattern="false"
       fuse_tolerance="0" />
    <inkscape:path-effect
       fuse_tolerance="0"
       vertical_pattern="false"
       prop_units="false"
       tang_offset="0"
       normal_offset="0"
       spacing="0"
       scale_y_rel="false"
       prop_scale="1"
       copytype="single_stretched"
       pattern="m -261.60868,5 c 0,-2.76 2.24,-5 5,-5 2.76,0 5,2.24 5,5 0,2.76 -2.24,5 -5,5 -2.76,0 -5,-2.24 -5,-5 z"
       is_visible="true"
       id="path-effect4316"
       effect="skeletal" />
    <inkscape:path-effect
       effect="skeletal"
       id="path-effect4312"
       is_visible="true"
       pattern="m 672.69191,5 c 0,-2.76 2.24,-5 5,-5 2.76,0 5,2.24 5,5 0,2.76 -2.24,5 -5,5 -2.76,0 -5,-2.24 -5,-5 z"
       copytype="single_stretched"
       prop_scale="1"
       scale_y_rel="false"
       spacing="0"
       normal_offset="0"
       tang_offset="0"
       prop_units="false"
       vertical_pattern="false"
       fuse_tolerance="0" />
    <inkscape:path-effect
       fuse_tolerance="0"
       vertical_pattern="false"
       prop_units="false"
       tang_offset="0"
       normal_offset="0"
       spacing="0"
       scale_y_rel="false"
       prop_scale="1"
       copytype="single_stretched"
       pattern="m 672.69191,5 c 0,-2.76 2.24,-5 5,-5 2.76,0 5,2.24 5,5 0,2.76 -2.24,5 -5,5 -2.76,0 -5,-2.24 -5,-5 z"
       is_visible="true"
       id="path-effect4306"
       effect="skeletal" />
    <inkscape:path-effect
       fuse_tolerance="0"
       vertical_pattern="false"
       prop_units="false"
       tang_offset="0"
       normal_offset="0"
       spacing="0"
       scale_y_rel="false"
       prop_scale="1"
       copytype="single_stretched"
       pattern="m 1974.2917,-1959.1109 c 0,-2.76 2.24,-5 5,-5 2.76,0 5,2.24 5,5 0,2.76 -2.24,5 -5,5 -2.76,0 -5,-2.24 -5,-5 z"
       is_visible="true"
       id="path-effect4298"
       effect="skeletal" />
    <inkscape:path-effect
       effect="skeletal"
       id="path-effect4282"
       is_visible="true"
       pattern="m 1291.4286,-1591.4154 c 0,-2.76 2.24,-5 5,-5 2.76,0 5,2.24 5,5 0,2.76 -2.24,5 -5,5 -2.76,0 -5,-2.24 -5,-5 z"
       copytype="single_stretched"
       prop_scale="1"
       scale_y_rel="false"
       spacing="0"
       normal_offset="0"
       tang_offset="0"
       prop_units="false"
       vertical_pattern="false"
       fuse_tolerance="0" />
    <inkscape:path-effect
       fuse_tolerance="0"
       vertical_pattern="false"
       prop_units="false"
       tang_offset="0"
       normal_offset="0"
       spacing="0"
       scale_y_rel="false"
       prop_scale="1"
       copytype="single_stretched"
       pattern="m -291.42857,-1591.4154 c 0,-2.76 2.24,-5 5,-5 2.76,0 5,2.24 5,5 0,2.76 -2.24,5 -5,5 -2.76,0 -5,-2.24 -5,-5 z"
       is_visible="true"
       id="path-effect4278"
       effect="skeletal" />
    <inkscape:path-effect
       effect="skeletal"
       id="path-effect4272"
       is_visible="true"
       pattern="m -261.60868,5 c 0,-2.76 2.24,-5 5,-5 2.76,0 5,2.24 5,5 0,2.76 -2.24,5 -5,5 -2.76,0 -5,-2.24 -5,-5 z"
       copytype="single_stretched"
       prop_scale="1"
       scale_y_rel="false"
       spacing="0"
       normal_offset="0"
       tang_offset="0"
       prop_units="false"
       vertical_pattern="false"
       fuse_tolerance="0" />
    <inkscape:path-effect
       fuse_tolerance="0"
       vertical_pattern="false"
       prop_units="false"
       tang_offset="0"
       normal_offset="0"
       spacing="0"
       scale_y_rel="false"
       prop_scale="1"
       copytype="single_stretched"
       pattern="m 672.69191,5 c 0,-2.76 2.24,-5 5,-5 2.76,0 5,2.24 5,5 0,2.76 -2.24,5 -5,5 -2.76,0 -5,-2.24 -5,-5 z"
       is_visible="true"
       id="path-effect4268"
       effect="skeletal" />
    <inkscape:path-effect
       effect="skeletal"
       id="path-effect4260"
       is_visible="true"
       pattern="m 672.69191,5 c 0,-2.76 2.24,-5 5,-5 2.76,0 5,2.24 5,5 0,2.76 -2.24,5 -5,5 -2.76,0 -5,-2.24 -5,-5 z"
       copytype="single_stretched"
       prop_scale="1"
       scale_y_rel="false"
       spacing="0"
       normal_offset="0"
       tang_offset="0"
       prop_units="false"
       vertical_pattern="false"
       fuse_tolerance="0" />
    <inkscape:path-effect
       fuse_tolerance="0"
       vertical_pattern="false"
       prop_units="false"
       tang_offset="0"
       normal_offset="0"
       spacing="0"
       scale_y_rel="false"
       prop_scale="1"
       copytype="single_stretched"
       pattern="m 438.4062,-1777.2835 c 0,-2.76 2.24,-5 5,-5 2.76,0 5,2.24 5,5 0,2.76 -2.24,5 -5,5 -2.76,0 -5,-2.24 -5,-5 z"
       is_visible="true"
       id="path-effect4256"
       effect="skeletal" />
    <inkscape:path-effect
       fuse_tolerance="0"
       vertical_pattern="false"
       prop_units="false"
       tang_offset="0"
       normal_offset="0"
       spacing="0"
       scale_y_rel="false"
       prop_scale="1"
       copytype="single_stretched"
       pattern="m -1017.1429,-1742.9978 c 0,-2.76 2.24,-5 5,-5 2.76,0 5,2.24 5,5 0,2.76 -2.24,5 -5,5 -2.76,0 -5,-2.24 -5,-5 z"
       is_visible="true"
       id="path-effect4252"
       effect="skeletal" />
    <inkscape:path-effect
       effect="skeletal"
       id="path-effect4248"
       is_visible="true"
       pattern="m 142.85714,-1742.9978 c 0,-2.76 2.24,-5 5,-5 2.76,0 5,2.24 5,5 0,2.76 -2.24,5 -5,5 -2.76,0 -5,-2.24 -5,-5 z"
       copytype="single_stretched"
       prop_scale="1"
       scale_y_rel="false"
       spacing="0"
       normal_offset="0"
       tang_offset="0"
       prop_units="false"
       vertical_pattern="false"
       fuse_tolerance="0" />
    <inkscape:path-effect
       fuse_tolerance="0"
       vertical_pattern="false"
       prop_units="false"
       tang_offset="0"
       normal_offset="0"
       spacing="0"
       scale_y_rel="false"
       prop_scale="1"
       copytype="single_stretched"
       pattern="m 254.55844,-1777.2835 c 0,-2.76 2.24,-5 5,-5 2.76,0 5,2.24 5,5 0,2.76 -2.24,5 -5,5 -2.76,0 -5,-2.24 -5,-5 z"
       is_visible="true"
       id="path-effect4244"
       effect="skeletal" />
    <inkscape:path-effect
       effect="skeletal"
       id="path-effect4204"
       is_visible="true"
       pattern="m 0,-1777.2835 c 0,-2.76 2.24,-5 5,-5 2.76,0 5,2.24 5,5 0,2.76 -2.24,5 -5,5 -2.76,0 -5,-2.24 -5,-5 z"
       copytype="single_stretched"
       prop_scale="1"
       scale_y_rel="false"
       spacing="0"
       normal_offset="0"
       tang_offset="0"
       prop_units="false"
       vertical_pattern="false"
       fuse_tolerance="0" />
    <inkscape:path-effect
       effect="skeletal"
       id="path-effect4200"
       is_visible="true"
       pattern="m 0,-1777.2835 c 0,-2.76 2.24,-5 5,-5 2.76,0 5,2.24 5,5 0,2.76 -2.24,5 -5,5 -2.76,0 -5,-2.24 -5,-5 z"
       copytype="single_stretched"
       prop_scale="1"
       scale_y_rel="false"
       spacing="0"
       normal_offset="0"
       tang_offset="0"
       prop_units="false"
       vertical_pattern="false"
       fuse_tolerance="0" />
    <inkscape:path-effect
       effect="skeletal"
       id="path-effect4196"
       is_visible="true"
       pattern="m 35.216866,-1591.4154 c 0,-2.76 2.24,-5 5,-5 2.76,0 5,2.24 5,5 0,2.76 -2.24,5 -5,5 -2.76,0 -5,-2.24 -5,-5 z"
       copytype="single_stretched"
       prop_scale="1"
       scale_y_rel="false"
       spacing="0"
       normal_offset="0"
       tang_offset="0"
       prop_units="false"
       vertical_pattern="false"
       fuse_tolerance="0" />
    <inkscape:path-effect
       effect="skeletal"
       id="path-effect4192"
       is_visible="true"
       pattern="m 0,-1777.2835 c 0,-2.76 2.24,-5 5,-5 2.76,0 5,2.24 5,5 0,2.76 -2.24,5 -5,5 -2.76,0 -5,-2.24 -5,-5 z"
       copytype="single_stretched"
       prop_scale="1"
       scale_y_rel="false"
       spacing="0"
       normal_offset="0"
       tang_offset="0"
       prop_units="false"
       vertical_pattern="false"
       fuse_tolerance="0" />
    <inkscape:path-effect
       effect="skeletal"
       id="path-effect4188"
       is_visible="true"
       pattern="m 0,-1777.2835 c 0,-2.76 2.24,-5 5,-5 2.76,0 5,2.24 5,5 0,2.76 -2.24,5 -5,5 -2.76,0 -5,-2.24 -5,-5 z"
       copytype="single_stretched"
       prop_scale="1"
       scale_y_rel="false"
       spacing="0"
       normal_offset="0"
       tang_offset="0"
       prop_units="false"
       vertical_pattern="false"
       fuse_tolerance="0" />
    <inkscape:path-effect
       effect="skeletal"
       id="path-effect4184"
       is_visible="true"
       pattern="m 0,-1777.2835 c 0,-2.76 2.24,-5 5,-5 2.76,0 5,2.24 5,5 0,2.76 -2.24,5 -5,5 -2.76,0 -5,-2.24 -5,-5 z"
       copytype="single_stretched"
       prop_scale="1"
       scale_y_rel="false"
       spacing="0"
       normal_offset="0"
       tang_offset="0"
       prop_units="false"
       vertical_pattern="false"
       fuse_tolerance="0" />
    <inkscape:path-effect
       effect="skeletal"
       id="path-effect4180"
       is_visible="true"
       pattern="m 0,-1591.4154 c 0,-2.76 2.24,-5 5,-5 2.76,0 5,2.24 5,5 0,2.76 -2.24,5 -5,5 -2.76,0 -5,-2.24 -5,-5 z"
       copytype="single_stretched"
       prop_scale="1"
       scale_y_rel="false"
       spacing="0"
       normal_offset="0"
       tang_offset="0"
       prop_units="false"
       vertical_pattern="false"
       fuse_tolerance="0" />
    <inkscape:path-effect
       effect="skeletal"
       id="path-effect4176"
       is_visible="true"
       pattern="m 0,-1777.2835 c 0,-2.76 2.24,-5 5,-5 2.76,0 5,2.24 5,5 0,2.76 -2.24,5 -5,5 -2.76,0 -5,-2.24 -5,-5 z"
       copytype="single_stretched"
       prop_scale="1"
       scale_y_rel="false"
       spacing="0"
       normal_offset="0"
       tang_offset="0"
       prop_units="false"
       vertical_pattern="false"
       fuse_tolerance="0" />
  </defs>
  <sodipodi:namedview
     id="base"
     pagecolor="#ffffff"
     bordercolor="#666666"
     borderopacity="1.0"
     inkscape:pageopacity="0.0"
     inkscape:pageshadow="2"
     inkscape:zoom="0.24748737"
     inkscape:cx="1673.2881"
     inkscape:cy="1368.0572"
     inkscape:document-units="px"
     inkscape:current-layer="layer2"
     showgrid="false"
     inkscape:window-width="1920"
     inkscape:window-height="1051"
     inkscape:window-x="-9"
     inkscape:window-y="-9"
     inkscape:window-maximized="1" />
  <metadata
     id="metadata7">
    <rdf:RDF>
      <cc:Work
         rdf:about="">
        <dc:format>image/svg+xml</dc:format>
        <dc:type
           rdf:resource="http://purl.org/dc/dcmitype/StillImage" />
        <dc:title></dc:title>
      </cc:Work>
    </rdf:RDF>
  </metadata>
  <g
     inkscape:groupmode="layer"
     id="layer2"
     inkscape:label="Layer 2"
     style="display:inline">
    <circle
       r="24.285715"
       cy="837.07886"
       cx="1425.397"
       id="circle4237"
       style="opacity:1;fill:#000000;fill-opacity:1;stroke:#000000;stroke-width:0.1;stroke-linecap:butt;stroke-linejoin:miter;stroke-miterlimit:4;stroke-dasharray:none;stroke-opacity:1" />
    <circle
       style="opacity:1;fill:#000000;fill-opacity:1;stroke:#000000;stroke-width:0.1;stroke-linecap:butt;stroke-linejoin:miter;stroke-miterlimit:4;stroke-dasharray:none;stroke-opacity:1"
       id="circle4263"
       cx="2354.7737"
       cy="2639.6294"
       r="24.285715" />
    <path
       sodipodi:nodetypes="cc"
       inkscape:connector-curvature="0"
       inkscape:original-d="M 2359.3374,2637.6567 1424.1205,834.64576"
       inkscape:path-effect="#path-effect4268"
       id="path4266"
       d="m 2359.3374,2637.6567 c -2.45,1.2708 -213.927,-401.5722 -472.0469,-899.2033 -258.1199,-497.631 -465.62,-902.53682 -463.17,-903.80764 2.45,-1.27082 213.927,401.57224 472.0469,899.20324 258.1199,497.631 465.62,902.5369 463.17,903.8077 z"
       style="opacity:1;fill:#000000;fill-opacity:1;stroke:none;stroke-width:0.1;stroke-linecap:butt;stroke-linejoin:miter;stroke-miterlimit:4;stroke-dasharray:none;stroke-opacity:1" />
    <path
       style="opacity:1;fill:#000000;fill-opacity:1;stroke:none;stroke-width:0.1;stroke-linecap:butt;stroke-linejoin:miter;stroke-miterlimit:4;stroke-dasharray:none;stroke-opacity:1"
       d="m 489.81991,2637.6567 c -2.45002,-1.2708 205.05013,-406.1767 463.17,-903.8077 258.11989,-497.631 469.59689,-900.47406 472.04689,-899.20324 2.45,1.27082 -205.0501,406.17664 -463.17,903.80764 -258.11986,497.6311 -469.59687,900.4741 -472.04689,899.2033 z"
       id="path4270"
       inkscape:path-effect="#path-effect4272"
       inkscape:original-d="M 489.81991,2637.6567 1425.0368,834.64576"
       inkscape:connector-curvature="0"
       sodipodi:nodetypes="cc" />
    <circle
       r="24.285715"
       cy="2639.6294"
       cx="503.34512"
       id="circle4274"
       style="opacity:1;fill:#000000;fill-opacity:1;stroke:#000000;stroke-width:0.1;stroke-linecap:butt;stroke-linejoin:miter;stroke-miterlimit:4;stroke-dasharray:none;stroke-opacity:1" />
    <path
       transform="translate(0,1782.2835)"
       inkscape:connector-curvature="0"
       inkscape:original-d="m 2077.1429,855.3732 274.2857,0"
       inkscape:path-effect="#path-effect4278"
       id="path4276"
       d="m 2077.1429,855.3732 c 0,-2.76 61.44,-5 137.1429,-5 75.7028,0 137.1428,2.24 137.1428,5 0,2.76 -61.44,5 -137.1428,5 -75.7029,0 -137.1429,-2.24 -137.1429,-5 z"
       style="display:inline;opacity:1;fill:#000000;fill-opacity:1;stroke:none;stroke-width:0.1;stroke-linecap:butt;stroke-linejoin:miter;stroke-miterlimit:4;stroke-dasharray:none;stroke-opacity:1" />
    <path
       style="display:inline;opacity:1;fill:#000000;fill-opacity:1;stroke:none;stroke-width:0.1;stroke-linecap:butt;stroke-linejoin:miter;stroke-miterlimit:4;stroke-dasharray:none;stroke-opacity:1"
       d="m 494.28572,2637.6567 c 0,-2.76 59.87605,-5 133.65191,-5 73.77585,0 133.6519,2.24 133.6519,5 0,2.76 -59.87605,5 -133.6519,5 -73.77586,0 -133.65191,-2.24 -133.65191,-5 z"
       id="path4280"
       inkscape:path-effect="#path-effect4282"
       inkscape:original-d="m 494.28572,2637.6567 267.30381,0"
       inkscape:connector-curvature="0" />
    <path
       inkscape:connector-curvature="0"
       inkscape:original-d="m 1177.1488,2269.9612 324.4467,0"
       inkscape:path-effect="#path-effect4298"
       id="path4296"
       d="m 1177.1488,2269.9612 c 0,-2.76 72.6761,-5 162.2234,-5 89.5472,0 162.2233,2.24 162.2233,5 0,2.76 -72.6761,5 -162.2233,5 -89.5473,0 -162.2234,-2.24 -162.2234,-5 z"
       style="display:inline;opacity:1;fill:#000000;fill-opacity:1;stroke:none;stroke-width:0.1;stroke-linecap:butt;stroke-linejoin:miter;stroke-miterlimit:4;stroke-dasharray:none;stroke-opacity:1" />
    <path
       sodipodi:nodetypes="cc"
       inkscape:connector-curvature="0"
       inkscape:original-d="M 1555.2183,1892.3408 1429.0407,1649.0822"
       inkscape:path-effect="#path-effect4362"
       id="path4360"
       d="m 1555.2183,1892.3408 c -2.45,1.2708 -32.7022,-52.1877 -67.5272,-119.3271 -34.8251,-67.1394 -61.1004,-122.6607 -58.6504,-123.9315 2.45,-1.2708 32.7022,52.1877 67.5272,119.3271 34.8251,67.1394 61.1004,122.6607 58.6504,123.9315 z"
       style="opacity:1;fill:#000000;fill-opacity:1;stroke:none;stroke-width:0.1;stroke-linecap:butt;stroke-linejoin:miter;stroke-miterlimit:4;stroke-dasharray:none;stroke-opacity:1" />
    <path
       style="opacity:1;fill:#000000;fill-opacity:1;stroke:none;stroke-width:0.1;stroke-linecap:butt;stroke-linejoin:miter;stroke-miterlimit:4;stroke-dasharray:none;stroke-opacity:1"
       d="m 1302.9868,1892.3408 c -2.45,-1.2708 23.8253,-56.7921 58.6504,-123.9315 34.825,-67.1394 65.0772,-120.5979 67.5272,-119.3271 2.45,1.2708 -23.8253,56.7921 -58.6504,123.9315 -34.825,67.1394 -65.0772,120.5979 -67.5272,119.3271 z"
       id="path4364"
       inkscape:path-effect="#path-effect4366"
       inkscape:original-d="m 1302.9868,1892.3408 126.1776,-243.2586"
       inkscape:connector-curvature="0"
       sodipodi:nodetypes="cc" />
    <path
       inkscape:connector-curvature="0"
       inkscape:original-d="m 1303.7247,1894.4826 254.6493,0"
       inkscape:path-effect="#path-effect4370"
       id="path4368"
       d="m 1303.7247,1894.4826 c 0,-2.76 57.0414,-5 127.3247,-5 70.2832,0 127.3246,2.24 127.3246,5 0,2.76 -57.0414,5 -127.3246,5 -70.2833,0 -127.3247,-2.24 -127.3247,-5 z"
       style="display:inline;opacity:1;fill:#000000;fill-opacity:1;stroke:none;stroke-width:0.1;stroke-linecap:butt;stroke-linejoin:miter;stroke-miterlimit:4;stroke-dasharray:none;stroke-opacity:1" />
    <circle
       style="opacity:1;fill:#000000;fill-opacity:1;stroke:#000000;stroke-width:0.05466039;stroke-linecap:butt;stroke-linejoin:miter;stroke-miterlimit:4;stroke-dasharray:none;stroke-opacity:1"
       id="circle4372"
       cx="1556.9877"
       cy="1893.5204"
       r="13.274667" />
    <circle
       r="13.274667"
       cy="1651.4529"
       cx="1429.707"
       id="circle4374"
       style="opacity:1;fill:#000000;fill-opacity:1;stroke:#000000;stroke-width:0.05466039;stroke-linecap:butt;stroke-linejoin:miter;stroke-miterlimit:4;stroke-dasharray:none;stroke-opacity:1" />
    <circle
       style="opacity:1;fill:#000000;fill-opacity:1;stroke:#000000;stroke-width:0.05466039;stroke-linecap:butt;stroke-linejoin:miter;stroke-miterlimit:4;stroke-dasharray:none;stroke-opacity:1"
       id="circle4376"
       cx="1303.9882"
       cy="1893.5204"
       r="13.274667" />
    <path
       style="opacity:1;fill:#aaeeff;fill-opacity:1;stroke:#aaeeff;stroke-width:0.10101525;stroke-linecap:butt;stroke-linejoin:miter;stroke-miterlimit:4;stroke-dasharray:none;stroke-opacity:1"
       d="M 1414.0039 857.91992 L 1413.6465 857.92578 L 1413.582 857.92773 C 1410.4379 863.02592 1408.084 868.70874 1405.2461 874.0332 C 1371.423 941.64213 1336.9701 1008.9324 1302.5566 1076.2422 C 1302.3416 1078.7435 1305.8658 1077.3399 1307.3711 1077.709 C 1386.6552 1077.9509 1465.9692 1078.1168 1545.2344 1078.4668 C 1546.8331 1078.7232 1547.3155 1076.881 1546.3223 1075.8418 C 1511.0201 1006.4167 1475.3879 937.15486 1440.6621 867.44336 C 1439.0029 864.5172 1437.9966 861.0892 1435.9277 858.47852 C 1432.2133 859.38912 1428.3495 860.78547 1424.4785 860.43945 C 1420.829 860.42205 1417.3569 859.09251 1414.0039 857.91992 z M 1417.3203 1540.3809 C 1417.2171 1540.386 1417.115 1540.4044 1417.0156 1540.4414 C 1413.7821 1545.3722 1411.7611 1551.2142 1408.9805 1556.4805 C 1372.686 1631.1713 1334.4186 1704.8842 1296.0684 1778.5391 C 1267.7012 1832.4487 1239.5744 1886.5083 1209.4883 1939.4941 C 1208.2031 1942.1001 1212.5327 1942.4867 1213.8086 1944.2266 C 1219.1223 1948.6734 1222.1535 1955.3618 1222.8457 1962.1855 C 1224.3129 1963.8547 1227.1671 1962.0762 1229.2051 1962.5566 C 1307.8071 1960.1976 1386.4709 1960.0083 1465.1113 1960.1348 C 1522.4676 1960.3597 1579.8268 1960.8727 1637.1543 1962.627 C 1639.3064 1961.2409 1638.4117 1957.6416 1639.582 1955.4648 C 1640.9576 1950.5971 1644.4392 1946.8846 1647.7676 1943.2852 C 1647.7956 1940.5055 1645.2088 1938.1877 1644.1992 1935.6309 C 1609.0684 1872.9796 1575.8679 1809.227 1542.623 1745.543 C 1507.8433 1678.5887 1473.5589 1611.3911 1440.627 1543.5234 C 1439.9282 1541.3848 1437.6005 1541.0968 1435.8262 1542.1016 C 1429.7821 1544.0214 1423.3104 1542.9289 1417.6289 1540.4043 C 1417.5276 1540.3838 1417.4235 1540.3757 1417.3203 1540.3809 z M 1429.8242 1639.0918 C 1436.8941 1638.8901 1442.9677 1645.6472 1442 1652.6621 C 1442.141 1656.2074 1439.4611 1658.6771 1437.7734 1661.4316 C 1437.7344 1664.1725 1440.5093 1666.1444 1441.4531 1668.6406 C 1477.3057 1731.4404 1510.3752 1795.7948 1541.6797 1860.9746 C 1544.9648 1867.6047 1547.7451 1874.5935 1550.959 1881.1934 C 1555.3235 1882.1084 1560.92 1880.0827 1564.5918 1883.7012 C 1569.6316 1887.6424 1571.1517 1895.516 1567.0371 1900.6641 C 1562.7689 1907.2428 1552.2061 1907.6595 1547.4434 1901.4316 C 1545.7269 1899.5027 1544.9827 1895.0292 1541.4805 1896.1523 C 1500.4452 1898.5081 1459.1771 1898.4357 1418.0254 1898.4883 C 1385.7207 1898.2227 1353.3205 1898.336 1321.1211 1896.168 C 1318.2529 1895.3894 1315.5011 1895.8016 1314.9531 1899.207 C 1311.8492 1906.0143 1302.0539 1908.0897 1296.3691 1903.3398 C 1290.9894 1899.3337 1290.0025 1891.1106 1294.166 1885.8887 C 1296.9926 1881.6862 1302.3566 1881.0833 1306.9395 1881.0469 C 1309.2007 1878.8453 1309.6285 1875.0353 1311.2793 1872.2441 C 1330.5169 1830.8354 1351.3699 1790.1976 1372.3828 1749.668 C 1388.0497 1719.9617 1403.9513 1690.3638 1421.1016 1661.4883 C 1420.8721 1659.3082 1418.3764 1657.7686 1417.9805 1655.3887 C 1414.5257 1647.6627 1421.9435 1638.8504 1429.8242 1639.0918 z M 2024.6816 2002.0098 C 2024.5911 2001.9993 2024.4972 2002.0042 2024.3965 2002.0234 C 2024.2622 2002.0491 2024.1172 2002.1009 2023.9551 2002.1777 C 1979.0555 2038.4019 1923.7918 2061.6251 1866.3809 2067.502 C 1860.407 2068.4235 1854.1895 2068.1467 1848.3906 2069.1309 C 1846.1931 2075.1366 1842.9896 2081.0126 1838.0801 2085.3828 C 1839.2927 2090.5428 1843.4713 2095.0519 1845.8125 2099.9922 C 1888.8928 2176.5674 1929.5083 2254.4954 1970.4023 2332.2559 C 2019.8803 2426.7782 2068.5421 2521.7211 2115.9395 2617.3047 C 2118.4373 2618.3973 2121.4226 2615.6373 2124.3164 2616.2109 C 2132.2287 2615.5118 2139.8027 2619.0399 2144.5977 2625.3223 C 2147.1331 2627.7677 2147.7311 2631.698 2150.209 2633.9609 C 2209.2902 2633.0789 2268.4302 2633.094 2327.4609 2635.5703 C 2332.6124 2637.2835 2332.3161 2630.5412 2334.5625 2627.75 C 2337.1352 2622.4312 2342.4506 2619.6337 2347.2051 2616.6953 C 2347.2661 2613.0423 2343.7164 2609.8327 2342.5 2606.3652 C 2275.5831 2481.3937 2210.0094 2355.6975 2144.1172 2230.1797 C 2104.431 2154.3594 2064.7646 2078.5261 2025.4512 2002.5156 C 2025.1896 2002.208 2024.9532 2002.0413 2024.6816 2002.0098 z M 1201.0332 2073.9609 C 1200.8857 2073.9524 1200.7397 2073.9526 1200.5938 2073.9668 C 1200.3991 2073.9857 1200.2061 2074.0308 1200.0156 2074.1152 C 1198.2078 2077.3004 1196.4125 2080.6265 1193.6152 2083.0977 C 1190.3131 2086.2467 1185.9392 2088.1642 1181.5215 2089.0332 C 1180.2767 2089.9511 1181.3505 2091.8512 1181.1094 2093.1641 C 1183.1547 2151.5594 1183.2204 2210.0127 1183.957 2268.4395 C 1184.4918 2270.2311 1186.6612 2268.9304 1187.9941 2269.0664 C 1207.5941 2267.691 1227.2354 2267.2792 1246.875 2266.7578 C 1293.2969 2265.9279 1339.7302 2265.8261 1386.1582 2266.0566 C 1415.9265 2266.3264 1445.7067 2266.8981 1475.4375 2268.1406 C 1480.3681 2268.3417 1485.2589 2268.7017 1490.1797 2269.0117 C 1492.0786 2268.4057 1490.4228 2266.5156 1489.9531 2265.416 C 1462.6873 2213.1745 1435.3246 2160.9681 1409.1172 2108.1914 C 1405.7185 2101.4049 1402.5544 2094.5207 1399.1582 2087.7285 C 1397.892 2086.4893 1396.1509 2088.0105 1394.748 2088.2656 C 1386.7304 2090.6218 1377.3495 2088.6213 1371.5332 2082.4512 C 1369.2227 2080.1927 1367.4065 2077.4516 1366.0684 2074.5469 C 1364.8032 2073.6715 1362.9898 2074.4681 1361.4961 2074.3398 C 1329.3936 2075.8478 1297.1953 2075.9626 1265.041 2075.7832 C 1244.1494 2075.5743 1223.1851 2075.2 1202.3711 2074.1035 C 1201.9254 2074.0878 1201.4759 2073.9865 1201.0332 2073.9609 z M 774.74023 2097.793 C 774.41311 2097.8135 774.06574 2097.9829 773.86523 2098.2109 C 690.4748 2257.8567 607.23046 2417.5789 522.5918 2576.5645 C 515.97301 2589.2572 508.73418 2601.6905 502.50781 2614.5508 C 503.51871 2617.0842 507.15316 2616.0874 509.30664 2616.9688 C 517.84528 2618.8284 523.7155 2626.2934 526.47852 2634.2129 C 528.98334 2636.0145 532.55349 2634.571 535.42383 2634.8887 C 591.25571 2633.0307 647.18029 2633.2836 703.02734 2634.3926 C 719.88891 2634.6733 736.70165 2635.5938 753.51172 2636.5781 C 755.51737 2635.1344 755.04787 2631.7551 756.55273 2629.6562 C 760.32948 2621.8718 768.47034 2616.1572 777.24023 2616.2832 C 779.99089 2614.8371 778.86835 2610.8568 779.26953 2608.3398 C 778.22471 2535.1298 777.60809 2461.9122 777.1582 2388.6953 C 776.53121 2305.2675 776.46218 2221.8374 776.2168 2138.4082 C 776.03269 2125.0438 776.19474 2111.5542 775.49414 2098.2734 C 775.3734 2097.9022 775.06736 2097.7724 774.74023 2097.793 z "
       id="path4411" />
    <path
       style="opacity:1;fill:#aaeeff;fill-opacity:1;stroke:#aaeeff;stroke-width:0.10101525;stroke-linecap:butt;stroke-linejoin:miter;stroke-miterlimit:4;stroke-dasharray:none;stroke-opacity:1"
       d="m 1302.162,1077.1165 c -1.2619,2.9174 -3.3025,5.6845 -3.9499,8.7698 2.7227,1.4135 6.4126,0.2149 9.5077,0.6116 80.8138,0 161.6277,0 242.4415,0 2.4049,-1.8609 -1.7853,-5.2474 -2.2362,-7.6626 -1.5619,-2.7789 -5.7097,-0.7181 -8.3654,-1.3535 -78.8813,0.025 -157.7618,-0.3488 -236.6421,-0.7056 l -0.4605,0.2074 -0.2951,0.1329 z"
       id="path4425"
       inkscape:connector-curvature="0" />
  </g>
  <g
     inkscape:label="Layer 1"
     inkscape:groupmode="layer"
     id="layer1"
     transform="translate(0,1782.2835)"
     style="display:inline">
    <circle
       style="opacity:1;fill:#000000;fill-opacity:1;stroke:#000000;stroke-width:0.1;stroke-linecap:butt;stroke-linejoin:miter;stroke-miterlimit:4;stroke-dasharray:none;stroke-opacity:1"
       id="path4144"
       cx="777.78687"
       cy="857.34589"
       r="24.285715" />
    <circle
       r="24.285715"
       cy="857.34589"
       cx="1177.8073"
       id="circle4147"
       style="opacity:1;fill:#000000;fill-opacity:1;stroke:#000000;stroke-width:0.1;stroke-linecap:butt;stroke-linejoin:miter;stroke-miterlimit:4;stroke-dasharray:none;stroke-opacity:1" />
    <circle
       style="opacity:1;fill:#000000;fill-opacity:1;stroke:#000000;stroke-width:0.1;stroke-linecap:butt;stroke-linejoin:miter;stroke-miterlimit:4;stroke-dasharray:none;stroke-opacity:1"
       id="circle4158"
       cx="1177.8073"
       cy="283.57925"
       r="24.285715" />
    <circle
       style="opacity:1;fill:#000000;fill-opacity:1;stroke:#000000;stroke-width:0.1;stroke-linecap:butt;stroke-linejoin:miter;stroke-miterlimit:4;stroke-dasharray:none;stroke-opacity:1"
       id="circle4160"
       cx="1689.816"
       cy="857.34589"
       r="24.285715" />
    <circle
       r="24.285715"
       cy="283.57925"
       cx="1387.9189"
       id="circle4162"
       style="opacity:1;fill:#000000;fill-opacity:1;stroke:#000000;stroke-width:0.1;stroke-linecap:butt;stroke-linejoin:miter;stroke-miterlimit:4;stroke-dasharray:none;stroke-opacity:1" />
    <circle
       r="24.285715"
       cy="857.34589"
       cx="2126.2021"
       id="circle4164"
       style="opacity:1;fill:#000000;fill-opacity:1;stroke:#000000;stroke-width:0.1;stroke-linecap:butt;stroke-linejoin:miter;stroke-miterlimit:4;stroke-dasharray:none;stroke-opacity:1" />
    <circle
       style="opacity:1;fill:#000000;fill-opacity:1;stroke:#000000;stroke-width:0.1;stroke-linecap:butt;stroke-linejoin:miter;stroke-miterlimit:4;stroke-dasharray:none;stroke-opacity:1"
       id="circle4166"
       cx="1824.3048"
       cy="283.57925"
       r="24.285715" />
    <circle
       r="24.285715"
       cy="-702.32959"
       cx="777.78687"
       id="circle4168"
       style="opacity:1;fill:#000000;fill-opacity:1;stroke:#000000;stroke-width:0.1;stroke-linecap:butt;stroke-linejoin:miter;stroke-miterlimit:4;stroke-dasharray:none;stroke-opacity:1" />
    <circle
       style="opacity:1;fill:#000000;fill-opacity:1;stroke:#000000;stroke-width:0.1;stroke-linecap:butt;stroke-linejoin:miter;stroke-miterlimit:4;stroke-dasharray:none;stroke-opacity:1"
       id="circle4172"
       cx="1824.3049"
       cy="-702.32959"
       r="24.285715" />
    <path
       style="opacity:1;fill:#000000;fill-opacity:1;stroke:none;stroke-width:0.1;stroke-linecap:butt;stroke-linejoin:miter;stroke-miterlimit:4;stroke-dasharray:none;stroke-opacity:1"
       d="m 780,-704.7806 c 2.76,0 5,350.48934 5,782.34228 0,431.85294 -2.24,782.34228 -5,782.34228 -2.76,0 -5,-350.48934 -5,-782.34228 0,-431.85294 2.24,-782.34228 5,-782.34228 z"
       id="path4174"
       inkscape:path-effect="#path-effect4176"
       inkscape:original-d="m 780,-704.7806 0,1564.68456"
       inkscape:connector-curvature="0"
       sodipodi:nodetypes="cc" />
    <path
       style="opacity:1;fill:#000000;fill-opacity:1;stroke:none;stroke-width:0.1;stroke-linecap:butt;stroke-linejoin:miter;stroke-miterlimit:4;stroke-dasharray:none;stroke-opacity:1"
       d="m 1180,855.37317 c 0,2.76 -88.32,5 -197.14286,5 -108.82285,0 -197.14285,-2.24 -197.14285,-5 0,-2.76 88.32,-5 197.14285,-5 108.82286,0 197.14286,2.24 197.14286,5 z"
       id="path4178"
       inkscape:path-effect="#path-effect4180"
       inkscape:original-d="m 1180,855.37317 -394.28571,0"
       inkscape:connector-curvature="0" />
    <path
       style="opacity:1;fill:#000000;fill-opacity:1;stroke:none;stroke-width:0.1;stroke-linecap:butt;stroke-linejoin:miter;stroke-miterlimit:4;stroke-dasharray:none;stroke-opacity:1"
       d="m 1180,286.648 c 2.76,0 5,129.12699 5,288.22989 0,159.10289 -2.24,288.22988 -5,288.22988 -2.76,0 -5,-129.12699 -5,-288.22988 0,-159.1029 2.24,-288.22989 5,-288.22989 z"
       id="path4182"
       inkscape:path-effect="#path-effect4184"
       inkscape:original-d="m 1180,286.648 0,576.45977"
       inkscape:connector-curvature="0"
       sodipodi:nodetypes="cc" />
    <path
       style="opacity:1;fill:#000000;fill-opacity:1;stroke:none;stroke-width:0.1;stroke-linecap:butt;stroke-linejoin:miter;stroke-miterlimit:4;stroke-dasharray:none;stroke-opacity:1"
       d="m 1391.4286,289.5051 c 0,2.76 -48,5 -107.1428,5 -59.1429,0 -107.1429,-2.24 -107.1429,-5 0,-2.76 48,-5 107.1429,-5 59.1428,0 107.1428,2.24 107.1428,5 z"
       id="path4186"
       inkscape:path-effect="#path-effect4188"
       inkscape:original-d="m 1391.4286,289.5051 -214.2857,0"
       inkscape:connector-curvature="0" />
    <path
       style="opacity:1;fill:#000000;fill-opacity:1;stroke:none;stroke-width:0.1;stroke-linecap:butt;stroke-linejoin:miter;stroke-miterlimit:4;stroke-dasharray:none;stroke-opacity:1"
       d="m 1692.3598,855.37317 c -2.4365,1.29654 -71.1826,-123.12564 -153.451,-277.72808 -82.2685,-154.60244 -147.0596,-281.12915 -144.6231,-282.42569 2.4365,-1.29654 71.1826,123.12564 153.451,277.72808 82.2685,154.60244 147.0596,281.12915 144.6231,282.42569 z"
       id="path4190"
       inkscape:path-effect="#path-effect4192"
       inkscape:original-d="M 1692.3598,855.37317 1394.2857,295.2194"
       inkscape:connector-curvature="0"
       sodipodi:nodetypes="cc" />
    <path
       style="opacity:1;fill:#000000;fill-opacity:1;stroke:none;stroke-width:0.1;stroke-linecap:butt;stroke-linejoin:miter;stroke-miterlimit:4;stroke-dasharray:none;stroke-opacity:1"
       d="m 2129.5026,855.37317 c 0,2.76 -97.92,5 -218.5714,5 -120.6514,0 -218.5714,-2.24 -218.5714,-5 0,-2.76 97.92,-5 218.5714,-5 120.6514,0 218.5714,2.24 218.5714,5 z"
       id="path4194"
       inkscape:path-effect="#path-effect4196"
       inkscape:original-d="m 2129.5026,855.37317 -437.1428,0"
       inkscape:connector-curvature="0" />
    <path
       style="opacity:1;fill:#000000;fill-opacity:1;stroke:none;stroke-width:0.2;stroke-linecap:butt;stroke-linejoin:miter;stroke-miterlimit:4;stroke-dasharray:none;stroke-opacity:1"
       d="m 1825.7143,-701.9235 c 0,0.95443 31.9599,-5.46433 86.9268,8.42931 22.4896,5.68696 48.6781,15.15314 75.6392,30.67196 21.4539,12.35201 43.1949,28.40721 63.9996,48.68145 18.6455,18.17096 36.2031,39.34893 52.217,63.53406 0,0 0,4e-5 0,4e-5 15.1487,22.87696 28.6702,48.01738 40.4255,75.31839 11.3796,26.42585 20.9617,54.50425 28.6837,84.11061 14.8675,57.00626 22.6292,118.27687 22.3791,182.31535 -7e-4,0.17765 -0,0.35529 -0,0.5329 -0.2869,64.3293 -8.6309,125.810873 -23.9606,182.924646 -7.9591,29.6515612 -17.7429,57.758843 -29.2751,84.206955 -11.9238,27.348773 -25.5616,52.528579 -40.7758,75.456169 -16.0777,24.23079 -33.6342,45.46333 -52.2471,63.71856 -20.7197,20.32099 -42.3127,36.45732 -63.6355,48.9196 0,0 -10e-5,1e-5 -10e-5,1e-5 -26.6781,15.58871 -52.5472,25.17093 -74.8115,30.96623 -54.08,14.07077 -85.5629,7.85628 -85.5629,8.78526 0,-2.64069 31.4633,1.7822 84.2808,-13.46083 21.746,-6.27339 46.912,-16.20763 72.7532,-31.89926 0,0 0,-2e-5 0,-2e-5 20.6622,-12.54386 41.5388,-28.63104 61.5718,-48.75618 18.0003,-18.08258 34.9619,-39.05492 50.524,-62.95839 14.7259,-22.62068 27.92,-47.444171 39.4806,-74.412663 11.179,-26.081135 20.6606,-53.794374 28.3878,-83.044728 14.8872,-56.350586 22.9797,-116.992529 23.2705,-180.490559 8e-4,-0.17533 0,-0.35067 0,-0.52603 0.2376,-63.21109 -7.2802,-123.63465 -21.7114,-179.86234 -7.493,-29.19681 -16.7738,-56.87082 -27.7998,-82.91789 -11.3918,-26.90864 -24.467,-51.68043 -39.1232,-74.23796 0,0 0,-3e-5 0,-3e-5 -15.4931,-23.84411 -32.4495,-44.75151 -50.4754,-62.741 -20.1078,-20.06822 -41.1264,-36.07102 -61.9154,-48.50326 -26.1146,-15.62115 -51.6026,-25.44472 -73.5768,-31.61321 -53.7117,-15.08351 -85.6585,-10.46537 -85.6689,-13.14715 z"
       id="path4202"
       inkscape:path-effect="#path-effect4204"
       inkscape:original-d="m 1825.7143,-701.9235 c 491.498,-1.90474 482.5518,988.5715 0,988.5715"
       inkscape:connector-curvature="0"
       sodipodi:nodetypes="cc" />
    <path
       sodipodi:nodetypes="cc"
       inkscape:connector-curvature="0"
       inkscape:original-d="M 2125.0517,855.37317 1832.6919,295.2194"
       inkscape:path-effect="#path-effect4256"
       id="path4254"
       d="m 2125.0517,855.37317 c -2.4468,1.27704 -69.9212,-123.16096 -150.6125,-277.7634 -80.6913,-154.60244 -144.1941,-281.11333 -141.7473,-282.39037 2.4468,-1.27704 69.9212,123.16096 150.6125,277.7634 80.6913,154.60244 144.1941,281.11333 141.7473,282.39037 z"
       style="opacity:1;fill:#000000;fill-opacity:1;stroke:none;stroke-width:0.1;stroke-linecap:butt;stroke-linejoin:miter;stroke-miterlimit:4;stroke-dasharray:none;stroke-opacity:1" />
    <path
       style="display:inline;opacity:1;fill:#000000;fill-opacity:1;stroke:none;stroke-width:0.1;stroke-linecap:butt;stroke-linejoin:miter;stroke-miterlimit:4;stroke-dasharray:none;stroke-opacity:1"
       d="m 1658.6795,1960.3286 c -2.45,1.2708 -56.1464,-97.3859 -119.858,-220.2159 -63.7117,-122.8301 -113.4312,-223.5496 -110.9812,-224.8204 2.45,-1.2708 56.1464,97.3859 119.858,220.2159 63.7117,122.8301 113.4312,223.5496 110.9812,224.8204 z"
       id="path4310"
       inkscape:path-effect="#path-effect4312"
       inkscape:original-d="M 1658.6795,1960.3286 1427.8403,1515.2923"
       inkscape:connector-curvature="0"
       sodipodi:nodetypes="cc"
       transform="translate(0,-1782.2835)" />
    <path
       sodipodi:nodetypes="cc"
       inkscape:connector-curvature="0"
       inkscape:original-d="m 1197.2274,1960.3286 230.8391,-445.0363"
       inkscape:path-effect="#path-effect4316"
       id="path4314"
       d="m 1197.2274,1960.3286 c -2.45,-1.2708 47.2695,-101.9903 110.9811,-224.8204 63.7116,-122.83 117.408,-221.4867 119.858,-220.2159 2.45,1.2708 -47.2695,101.9903 -110.9811,224.8204 -63.7116,122.83 -117.408,221.4867 -119.858,220.2159 z"
       style="display:inline;opacity:1;fill:#000000;fill-opacity:1;stroke:none;stroke-width:0.1;stroke-linecap:butt;stroke-linejoin:miter;stroke-miterlimit:4;stroke-dasharray:none;stroke-opacity:1"
       transform="translate(0,-1782.2835)" />
    <path
       style="display:inline;opacity:1;fill:#000000;fill-opacity:1;stroke:none;stroke-width:0.1;stroke-linecap:butt;stroke-linejoin:miter;stroke-miterlimit:4;stroke-dasharray:none;stroke-opacity:1"
       d="m 1198.5774,1964.2469 c 0,-2.76 104.3561,-5 232.9377,-5 128.5815,0 232.9376,2.24 232.9376,5 0,2.76 -104.3561,5 -232.9376,5 -128.5816,0 -232.9377,-2.24 -232.9377,-5 z"
       id="path4320"
       inkscape:path-effect="#path-effect4322"
       inkscape:original-d="m 1198.5774,1964.2469 465.8753,0"
       inkscape:connector-curvature="0"
       transform="translate(0,-1782.2835)" />
    <circle
       r="24.285715"
       cy="1962.4866"
       cx="1661.9165"
       id="circle4328"
       style="display:inline;opacity:1;fill:#000000;fill-opacity:1;stroke:#000000;stroke-width:0.1;stroke-linecap:butt;stroke-linejoin:miter;stroke-miterlimit:4;stroke-dasharray:none;stroke-opacity:1"
       transform="translate(0,-1782.2835)" />
    <circle
       style="display:inline;opacity:1;fill:#000000;fill-opacity:1;stroke:#000000;stroke-width:0.1;stroke-linecap:butt;stroke-linejoin:miter;stroke-miterlimit:4;stroke-dasharray:none;stroke-opacity:1"
       id="circle4330"
       cx="1429.0593"
       cy="1519.6294"
       r="24.285715"
       transform="translate(0,-1782.2835)" />
    <circle
       r="24.285715"
       cy="1962.4866"
       cx="1199.0593"
       id="circle4332"
       style="display:inline;opacity:1;fill:#000000;fill-opacity:1;stroke:#000000;stroke-width:0.1;stroke-linecap:butt;stroke-linejoin:miter;stroke-miterlimit:4;stroke-dasharray:none;stroke-opacity:1"
       transform="translate(0,-1782.2835)" />
    <path
       style="opacity:1;fill:#ffffff;fill-opacity:1;stroke:#ffffff;stroke-width:0.2857143;stroke-linecap:butt;stroke-linejoin:miter;stroke-miterlimit:4;stroke-dasharray:none;stroke-opacity:1"
       d="m 1851.3673,1082.1098 c -6.2358,2.7013 -5.5897,11.9904 -11.5067,15.6138 -12.6371,12.8747 -37.513,3.3378 -38.8533,-14.389 -15.7122,-0.8082 -32.5626,1.3703 -48.7512,0.9615 -255.8032,2.3777 -511.6269,1.8152 -767.4372,0.9884 -60.82458,-0.6536 -121.69951,0.1234 -182.47505,-2.7785 -2.91141,9.6641 -10.58763,18.8955 -21.19978,21.1774 -0.82809,27.6153 1.31269,56.0872 1.01831,84.051 2.26346,360.9895 1.74767,721.9913 1.21848,1082.9858 -0.6892,114.6244 0.2668,229.2822 -2.88969,343.8756 9.17924,3.384 18.42829,10.3685 21.04352,20.505 5.56775,2.8755 12.64277,-1.2007 18.73605,0.1145 111.10278,-1.4466 222.21936,-0.9557 333.32866,-1.2947 4.2481,-9.4626 13.0977,-17.8888 24.2299,-17.9799 0.7697,-13.1723 -1.29,-27.5574 -0.7422,-41.2444 -0.7429,-151.9632 -1.172,-303.9431 0.4529,-455.8999 -0.1815,-9.3196 1.9046,-19.2831 0.454,-28.2185 -14.6875,-1.7046 -27.8917,-16.561 -22.6284,-31.6378 4.0446,-15.1486 25.0146,-22.4489 36.889,-11.4816 6.9964,4.6993 8.8403,13.8501 11.0574,21.0212 53.3352,0 106.6704,0 160.0056,0 0.9756,-7.0381 3.067,-15.4598 9.4001,-20.4129 12.2012,-12.2446 34.79,-4.1966 38.2896,12.0787 3.0553,9.9891 -3.2139,19.1337 -9.202,26.4983 -0.4926,6.7187 6.8174,11.757 8.8779,17.941 75.3615,134.3794 147.245,270.682 218.7531,407.133 17.9981,34.5198 35.6804,69.2013 52.9996,104.0666 9.5755,-0.025 21.4397,1.3462 26.9141,10.7366 2.5604,6.5206 6.2163,11.4127 14.0716,8.8086 119.6525,-1.9038 239.3382,-1.0428 359.0004,-0.4409 6.4381,-0.7436 13.3213,1.4127 19.4949,0.1591 2.7002,-5.8428 6.0176,-11.6478 10.9571,-16.1244 -13.5,-27.6068 -29.8917,-54.636 -44.2008,-82.1914 -77.6608,-144.135 -152.4156,-289.8159 -226.1201,-436.0146 -3.6496,-3.7277 -3.9619,-15.2417 -11.3432,-12.0435 -17.8519,6.1635 -37.1941,-14.8975 -28.7545,-31.9715 6.2361,-15.6998 30.1722,-19.9169 39.9777,-5.5134 4.818,4.0476 3.8662,11.1677 7.3354,15.5915 16.4271,-0.4224 32.9234,-4.6431 49.0577,-8.1053 78.8812,-18.5958 146.084,-72.0802 190.8249,-138.5584 55.5273,-81.9406 83.4205,-179.8944 93.2312,-277.6387 3.9151,-61.8477 5.1226,-124.3665 -5.4053,-185.6716 -15.8456,-100.0407 -52.5163,-200.3072 -122.558,-275.3599 -40.9201,-44.3058 -94.6365,-76.4519 -153.2428,-90.9123 -16.4497,-4.5508 -33.4437,-6.6924 -50.3089,-8.4245 z m -422.3354,414.2271 c 15.9339,-1.2883 27.9933,16.6473 22.1819,31.1997 -1.0357,5.3349 -5.8834,8.7461 -8.5407,12.8404 44.4127,78.15 84.8498,158.4791 126.4478,238.145 27.4237,53.3506 54.8795,106.6976 80.5806,160.9064 9.3017,0.9325 21.2503,-2.9006 28.3957,5.8147 13.0716,11.3381 7.5096,36.7781 -10.1563,39.8633 -11.8599,3.7126 -25.0915,-3.3575 -28.5115,-15.327 -1.5642,-7.9561 -11.9587,-1.7491 -17.7524,-2.851 -124.5561,1.4586 -249.1406,1.247 -373.6998,0.1172 -8.3983,0.3615 -17.34,-2.0512 -25.2957,-0.6194 -2.1531,12.9341 -15.7857,22.4782 -28.7221,18.9062 -12.0254,-1.628 -19.4041,-14.0045 -18.072,-25.5469 0.027,-13.1988 14.2922,-22.6763 26.7187,-20.5915 8.4658,-0.5997 8.4105,-14.0383 13.2975,-19.8841 54.9203,-112.1701 113.2239,-222.6665 171.6476,-333.0494 8.237,-15.9391 17.5296,-31.6864 25.9227,-47.3483 -2.3316,-4.6784 -7.3559,-8.4964 -7.2629,-14.3778 -3.4266,-14.359 7.7946,-29.1274 22.8209,-28.1975 z"
       id="path4392"
       inkscape:connector-curvature="0"
       transform="translate(0,-1782.2835)" />
  </g>
</svg>
